<svg width="605" height="260" viewBox="0 0 605 260" fill="none" xmlns="http://www.w3.org/2000/svg">
<rect width="605" height="260" fill="#FF175A"/>
<path d="M130.5 44.0001C94.4916 7.05643 69.9321 46.66 60.9321 70.8266C51.9321 94.9933 48.9321 149 48.9321 183.827C48.9322 219.862 74.3334 229.667 88.0001 231.5C88.0001 183.827 86.993 86.0977 105 91.5C120 96.0001 164.5 138.833 182.5 162.5L224.5 122.5C224.667 117.167 224.5 122.799 224.5 188C224.5 240 268.5 234.593 288 217.5C301.5 205.667 304.304 185.781 299 192C284.5 209 268.5 195.5 268.5 169.5V78.5C268.5 61 258 44.0001 234 44.0001C218.958 44.0001 195 81.5 182.5 96.0001C179.333 94.8334 169 83.5 130.5 44.0001Z" fill="white" stroke="white"/>
<path d="M350.469 189H343.766V165C343.766 164.531 343.672 164.094 343.484 163.688C343.312 163.281 343.07 162.93 342.758 162.633C342.461 162.32 342.109 162.078 341.703 161.906C341.297 161.734 340.859 161.648 340.391 161.648C339.922 161.648 339.484 161.734 339.078 161.906C338.672 162.078 338.312 162.32 338 162.633C337.703 162.93 337.469 163.281 337.297 163.688C337.125 164.094 337.039 164.531 337.039 165V189H330.312V165C330.312 164.531 330.227 164.094 330.055 163.688C329.883 163.281 329.641 162.93 329.328 162.633C329.031 162.32 328.68 162.078 328.273 161.906C327.867 161.734 327.43 161.648 326.961 161.648C326.492 161.648 326.055 161.734 325.648 161.906C325.242 162.078 324.883 162.32 324.57 162.633C324.273 162.93 324.039 163.281 323.867 163.688C323.695 164.094 323.609 164.531 323.609 165V189H316.883V165C316.883 163.609 317.141 162.305 317.656 161.086C318.188 159.852 318.906 158.781 319.812 157.875C320.734 156.953 321.805 156.234 323.023 155.719C324.258 155.188 325.57 154.922 326.961 154.922C328.211 154.922 329.414 155.148 330.57 155.602C331.727 156.039 332.766 156.68 333.688 157.523C334.609 156.68 335.641 156.039 336.781 155.602C337.938 155.148 339.141 154.922 340.391 154.922C341.781 154.922 343.086 155.188 344.305 155.719C345.539 156.234 346.609 156.953 347.516 157.875C348.438 158.781 349.156 159.852 349.672 161.086C350.203 162.305 350.469 163.609 350.469 165V189ZM376.273 175.57V168.844C376.273 167.922 376.094 167.055 375.734 166.242C375.391 165.414 374.914 164.695 374.305 164.086C373.695 163.477 372.977 163 372.148 162.656C371.336 162.297 370.469 162.117 369.547 162.117C368.625 162.117 367.75 162.297 366.922 162.656C366.109 163 365.398 163.477 364.789 164.086C364.18 164.695 363.695 165.414 363.336 166.242C362.992 167.055 362.82 167.922 362.82 168.844V175.57H376.273ZM383 189H376.273V182.273H362.82V189H356.117V168.844C356.117 166.984 356.469 165.242 357.172 163.617C357.875 161.977 358.828 160.547 360.031 159.328C361.25 158.109 362.672 157.148 364.297 156.445C365.938 155.742 367.688 155.391 369.547 155.391C371.406 155.391 373.148 155.742 374.773 156.445C376.414 157.148 377.844 158.109 379.062 159.328C380.281 160.547 381.242 161.977 381.945 163.617C382.648 165.242 383 166.984 383 168.844V189ZM415.578 185.602C414.016 186.93 412.273 187.953 410.352 188.672C408.43 189.375 406.43 189.727 404.352 189.727C402.758 189.727 401.219 189.516 399.734 189.094C398.266 188.688 396.891 188.109 395.609 187.359C394.328 186.594 393.156 185.688 392.094 184.641C391.031 183.578 390.125 182.406 389.375 181.125C388.625 179.828 388.039 178.438 387.617 176.953C387.211 175.469 387.008 173.93 387.008 172.336C387.008 170.742 387.211 169.211 387.617 167.742C388.039 166.273 388.625 164.898 389.375 163.617C390.125 162.32 391.031 161.148 392.094 160.102C393.156 159.039 394.328 158.133 395.609 157.383C396.891 156.633 398.266 156.055 399.734 155.648C401.219 155.227 402.758 155.016 404.352 155.016C406.43 155.016 408.43 155.375 410.352 156.094C412.273 156.797 414.016 157.812 415.578 159.141L412.062 165C411.047 163.969 409.875 163.164 408.547 162.586C407.219 161.992 405.82 161.695 404.352 161.695C402.883 161.695 401.5 161.977 400.203 162.539C398.922 163.102 397.797 163.867 396.828 164.836C395.859 165.789 395.094 166.914 394.531 168.211C393.969 169.492 393.688 170.867 393.688 172.336C393.688 173.82 393.969 175.211 394.531 176.508C395.094 177.805 395.859 178.938 396.828 179.906C397.797 180.875 398.922 181.641 400.203 182.203C401.5 182.766 402.883 183.047 404.352 183.047C405.195 183.047 406.016 182.945 406.812 182.742C407.609 182.539 408.367 182.258 409.086 181.898V172.336H415.578V185.602ZM427.484 189H420.758V155.391H427.484V189ZM460.578 185.555C459.016 186.898 457.266 187.93 455.328 188.648C453.391 189.367 451.383 189.727 449.305 189.727C447.711 189.727 446.172 189.516 444.688 189.094C443.219 188.688 441.836 188.109 440.539 187.359C439.258 186.594 438.086 185.68 437.023 184.617C435.961 183.555 435.047 182.383 434.281 181.102C433.531 179.805 432.945 178.422 432.523 176.953C432.117 175.469 431.914 173.93 431.914 172.336C431.914 170.742 432.117 169.203 432.523 167.719C432.945 166.234 433.531 164.852 434.281 163.57C435.047 162.273 435.961 161.094 437.023 160.031C438.086 158.969 439.258 158.062 440.539 157.312C441.836 156.547 443.219 155.961 444.688 155.555C446.172 155.133 447.711 154.922 449.305 154.922C451.383 154.922 453.391 155.281 455.328 156C457.266 156.703 459.016 157.734 460.578 159.094L457.016 164.953C456.031 163.891 454.867 163.078 453.523 162.516C452.18 161.938 450.773 161.648 449.305 161.648C447.82 161.648 446.43 161.93 445.133 162.492C443.836 163.055 442.703 163.82 441.734 164.789C440.766 165.742 440 166.875 439.438 168.188C438.875 169.484 438.594 170.867 438.594 172.336C438.594 173.805 438.875 175.188 439.438 176.484C440 177.766 440.766 178.891 441.734 179.859C442.703 180.828 443.836 181.594 445.133 182.156C446.43 182.719 447.82 183 449.305 183C450.773 183 452.18 182.719 453.523 182.156C454.867 181.578 456.031 180.758 457.016 179.695L460.578 185.555ZM475.977 165.469C475.977 164.078 476.242 162.773 476.773 161.555C477.305 160.336 478.023 159.273 478.93 158.367C479.852 157.445 480.922 156.719 482.141 156.188C483.359 155.656 484.664 155.391 486.055 155.391H501.477V162.117H486.055C485.586 162.117 485.148 162.203 484.742 162.375C484.336 162.547 483.977 162.789 483.664 163.102C483.367 163.398 483.133 163.75 482.961 164.156C482.789 164.562 482.703 165 482.703 165.469C482.703 165.938 482.789 166.383 482.961 166.805C483.133 167.211 483.367 167.57 483.664 167.883C483.977 168.18 484.336 168.414 484.742 168.586C485.148 168.758 485.586 168.844 486.055 168.844H492.781C494.172 168.844 495.477 169.109 496.695 169.641C497.93 170.156 499 170.875 499.906 171.797C500.828 172.703 501.547 173.773 502.062 175.008C502.594 176.227 502.859 177.531 502.859 178.922C502.859 180.312 502.594 181.617 502.062 182.836C501.547 184.055 500.828 185.125 499.906 186.047C499 186.953 497.93 187.672 496.695 188.203C495.477 188.734 494.172 189 492.781 189H477.852V182.273H492.781C493.25 182.273 493.688 182.188 494.094 182.016C494.5 181.844 494.852 181.609 495.148 181.312C495.461 181 495.703 180.641 495.875 180.234C496.047 179.828 496.133 179.391 496.133 178.922C496.133 178.453 496.047 178.016 495.875 177.609C495.703 177.203 495.461 176.852 495.148 176.555C494.852 176.242 494.5 176 494.094 175.828C493.688 175.656 493.25 175.57 492.781 175.57H486.055C484.664 175.57 483.359 175.305 482.141 174.773C480.922 174.242 479.852 173.523 478.93 172.617C478.023 171.695 477.305 170.625 476.773 169.406C476.242 168.172 475.977 166.859 475.977 165.469ZM514.016 189H507.289V155.391H514.016V172.195L526.531 155.391H534.172L523.555 169.57L534.172 189H526.531L519.148 175.406L514.016 182.273V189ZM544.016 189H537.289V155.391H544.016V189ZM577.156 189H569.961L557 166.875V189H550.273V155.391H557.469L570.43 177.539V155.391H577.156V189Z" fill="white"/>
</svg>
